<svg id="Layer_1" enable-background="new 0 0 512.003 512.003" height="512" viewBox="0 0 512.003 512.003" width="512" xmlns="http://www.w3.org/2000/svg"><g><path d="m132.92 0c-39.189 0-76.179 19.05-98.135 51.51-.585.864-1.166 1.741-1.743 2.63-22.942 35.315-33.041 79.727-33.041 121.86v329.782c0 3.574 3.641 6.007 6.932 4.612 3.889-1.648 10.667-4.979 24.929-11.707 1.349-.637 2.919-.64 4.269-.005l25.069 11.797c4.31 2.03 9.31 2.03 13.62 0l25.06-11.797c1.349-.635 2.91-.635 4.259 0l25.06 11.797c4.31 2.03 9.31 2.03 13.62 0l25.06-11.797c1.349-.635 2.91-.635 4.259 0l25.06 11.797c4.31 2.03 9.31 2.03 13.62 0l25.059-11.797c1.35-.636 2.92-.632 4.27.005 14.245 6.721 21.037 10.051 24.92 11.7 3.288 1.396 6.931-1.043 6.931-4.616 0-352.642-.022-331.163.04-334.172.454-58.553 22.173-126.164 68.127-162.714 3.693-2.934 1.579-8.885-3.136-8.885zm-92.919 240c-8.84 0-16-7.16-16-16s7.16-16 16-16 16 7.16 16 16-7.16 16-16 16zm48 0c-8.84 0-16-7.16-16-16s7.16-16 16-16 16 7.16 16 16-7.16 16-16 16zm48 0c-8.84 0-16-7.16-16-16s7.16-16 16-16 16 7.16 16 16-7.16 16-16 16zm48 0c-8.84 0-16-7.16-16-16s7.16-16 16-16 16 7.16 16 16-7.16 16-16 16zm48 0c-8.84 0-16-7.16-16-16s7.16-16 16-16 16 7.16 16 16-7.16 16-16 16z"/><path d="m408.001 16c-57.44 0-104 71.63-104 160s46.56 160 104 160 104-71.63 104-160-46.56-160-104-160zm11.48 220.57c-4.22 8.72-8.48 14.15-11.48 17.15-3-3-7.26-8.43-11.48-17.15-22.679-46.932-11.948-114.862 11.48-138.29 23.243 23.243 34.276 91.116 11.48 138.29z"/><path d="m304.001 319.213v43.787c0 2.761 2.239 5 5 5h52.42c5.15 0 6.948-6.858 2.446-9.359-14.293-7.942-33.894-21.468-50.957-42.537-2.978-3.678-8.909-1.622-8.909 3.109z"/></g></svg>